# Blender 5.0.1
# www.blender.org
mtllib test_level.mtl
o Cube
v 4.962027 2.157196 -8.700480
v 3.363890 1.307143 1.000000
v 1.000000 0.007351 1.000000
v 2.598136 0.857404 -8.700480
v -2.598136 0.857404 -8.700480
v -1.000000 0.007351 1.000000
v -4.962027 2.157196 -8.700480
v -3.363890 1.307143 1.000000
vn -0.4818 0.8763 -0.0026
vn -0.0000 0.9962 0.0873
vn 0.4818 0.8763 -0.0026
vt 0.625000 0.500000
vt 0.625000 0.750000
vt 0.750000 0.500000
vt 0.750000 0.750000
s 0
f 4/1/1 3/2/1 2/2/1 1/1/1
f 4/1/2 5/3/2 6/4/2 3/2/2
f 5/1/3 7/1/3 8/2/3 6/2/3
