# Blender 5.0.1
# www.blender.org
mtllib test_level.mtl
o Cube
v 2.000000 -1.000000 1.000000
v 2.000000 1.000000 1.000000
v 2.000000 -1.000000 -1.000000
v 2.000000 1.000000 -1.000000
v 8.000000 -1.000000 1.000000
v 8.000000 1.000000 1.000000
v 8.000000 -1.000000 -1.000000
v 8.000000 1.000000 -1.000000
v 2.000000 -1.000000 -9.000000
v 8.000000 -1.000000 -9.000000
v 2.000000 1.000000 -9.000000
v 8.000000 1.000000 -9.000000
v 2.000000 1.000000 -11.000000
v 8.000000 1.000000 -11.000000
v 2.000000 -1.000000 -11.000000
v 8.000000 -1.000000 -11.000000
v 0.000000 1.000000 1.000000
v 0.000000 1.000000 -1.000000
v 0.000000 -1.000000 1.000000
v 0.000000 -1.000000 -11.000000
v 2.000000 -0.989271 -1.000000
v 2.000000 -0.599121 -9.000000
v -2.000000 -1.000000 1.000000
v -2.000000 1.000000 1.000000
v -2.000000 -1.000000 -1.000000
v -2.000000 1.000000 -1.000000
v -8.000000 -1.000000 1.000000
v -8.000000 1.000000 1.000000
v -8.000000 -1.000000 -1.000000
v -8.000000 1.000000 -1.000000
v -2.000000 -1.000000 -9.000000
v -8.000000 -1.000000 -9.000000
v -2.000000 1.000000 -9.000000
v -8.000000 1.000000 -9.000000
v -2.000000 1.000000 -11.000000
v -8.000000 1.000000 -11.000000
v -2.000000 -1.000000 -11.000000
v -8.000000 -1.000000 -11.000000
v -2.000000 -0.989271 -1.000000
v -2.000000 -0.599121 -9.000000
vn -0.0000 1.0000 -0.0000
vn -0.0000 -0.0000 -1.0000
vn 1.0000 -0.0000 -0.0000
vn -0.0000 -0.0000 1.0000
vn -1.0000 -0.0000 -0.0000
vn -0.0000 0.9806 -0.1961
vt 0.448693 0.961898
vt 0.448561 0.874506
vt 0.535953 0.874375
vt 0.536085 0.961766
vt 0.293273 0.581185
vt 0.293273 0.831185
vt -0.456727 0.831184
vt -0.456727 0.581185
vt 0.543273 0.581185
vt 0.543273 0.831185
vt 1.543393 0.581185
vt 1.543393 0.831185
vt 0.793393 0.831185
vt 0.793393 0.581185
vt 0.338555 0.651943
vt 0.339410 0.568388
vt 0.450817 0.569528
vt 0.449962 0.653083
vt 0.186386 0.874900
vt 0.186517 0.962292
vt 0.366723 0.711557
vt 0.423112 0.711557
vt 0.423112 0.763361
vt 0.366723 0.763361
vt 0.312186 0.972821
vt 0.073664 0.894137
vt 0.099892 0.814630
vt 0.338414 0.893314
vt 0.366702 0.763361
vt 0.310313 0.763361
vt 0.310313 0.711557
vt 0.366702 0.711557
vt 0.272736 0.711557
vt 0.291533 0.711557
vt 0.291533 0.763361
vt 0.272736 0.763361
vt 0.310329 0.763361
vt 0.310329 0.711557
vt 0.543393 0.831185
vt 0.543393 0.581185
vt 0.988995 0.879561
vt 0.990177 0.960922
vt 0.575316 0.966948
vt 0.574134 0.885587
vt 1.006504 0.855437
vt 0.006562 0.855437
vt 0.042764 0.527043
s 0
usemtl grass
f 2/1/1 4/2/1 18/3/1 17/4/1
f 3/5/2 4/6/2 8/7/2 7/8/2
f 7/9/3 8/10/3 6/6/3 5/5/3
f 5/11/4 6/12/4 2/13/4 1/14/4
f 3/15/1 7/16/1 10/17/1 9/18/1
f 8/19/1 4/2/1 2/1/1 6/20/1
f 9/21/4 10/22/4 12/23/4 11/24/4
f 11/25/1 12/26/1 14/27/1 13/28/1
f 13/29/2 14/30/2 16/31/2 15/32/2
f 10/33/3 16/34/3 14/35/3 12/36/3
f 11/37/5 13/35/5 15/34/5 22/38/5
f 2/13/4 17/39/4 19/40/4 1/14/4
f 18/41/6 4/42/6 15/43/6 20/44/6
f 15/45/3 4/46/3 21/47/3
f 24/1/1 17/4/1 18/3/1 26/2/1
f 25/5/2 29/8/2 30/7/2 26/6/2
f 29/9/5 27/5/5 28/6/5 30/10/5
f 27/11/4 23/14/4 24/13/4 28/12/4
f 25/15/1 31/18/1 32/17/1 29/16/1
f 30/19/1 28/20/1 24/1/1 26/2/1
f 31/21/4 33/24/4 34/23/4 32/22/4
f 33/25/1 35/28/1 36/27/1 34/26/1
f 35/29/2 37/32/2 38/31/2 36/30/2
f 32/33/5 34/36/5 36/35/5 38/34/5
f 33/37/3 40/38/3 37/34/3 35/35/3
f 24/13/4 23/14/4 19/40/4 17/39/4
f 18/41/6 20/44/6 37/43/6 26/42/6
f 37/45/5 39/47/5 26/46/5
